<svg xmlns="http://www.w3.org/2000/svg"  viewBox="0 0 50 50" width="100px" height="100px"><path d="M 14 4 C 8.4886661 4 4 8.4886661 4 14 L 4 36 C 4 41.511334 8.4886661 46 14 46 L 36 46 C 41.511334 46 46 41.511334 46 36 L 46 14 C 46 8.4886661 41.511334 4 36 4 L 14 4 z M 14 6 L 36 6 C 40.430666 6 44 9.5693339 44 14 L 44 36 C 44 40.430666 40.430666 44 36 44 L 14 44 C 9.5693339 44 6 40.430666 6 36 L 6 14 C 6 9.5693339 9.5693339 6 14 6 z M 25 10 C 23.68 10 22.399922 10.17 21.169922 10.5 C 21.949922 10.87 22.609609 11.440625 23.099609 12.140625 L 23.109375 12.140625 C 23.40385 12.097879 23.701013 12.066597 24 12.042969 L 24 24 L 18 24 L 15.330078 26 L 17.029297 26 C 17.093918 27.977395 17.366964 29.826275 17.789062 31.505859 C 16.742286 31.955791 15.769264 32.500976 14.890625 33.138672 C 13.463793 31.368684 12.489114 29.219981 12.150391 26.869141 C 11.980391 26.829141 11.820156 26.759687 11.660156 26.679688 C 10.720156 26.219687 10.109531 25.299531 10.019531 24.269531 C 10.009531 24.509531 10 24.75 10 25 C 10 33.27 16.73 40 25 40 C 26.32 40 27.600078 39.83 28.830078 39.5 C 28.050078 39.13 27.390391 38.559375 26.900391 37.859375 C 26.604482 37.902329 26.302846 37.93534 26 37.958984 L 26 26 L 38 26 C 38.68 26 39.329688 26.140859 39.929688 26.380859 C 39.979687 25.930859 40 25.47 40 25 C 40 16.73 33.27 10 25 10 z M 12 12 C 10.35503 12 9 13.35503 9 15 L 9 19 C 9 20.64497 10.35503 22 12 22 L 12 24 A 1.0001 1.0001 0 0 0 13.599609 24.800781 L 17.333984 22 L 19 22 C 20.64497 22 22 20.64497 22 19 L 22 15 C 22 13.35503 20.64497 12 19 12 L 12 12 z M 26 12.423828 C 27.079159 12.854813 28.157693 13.752889 29.054688 15.546875 C 29.289545 16.01659 29.419635 16.682775 29.619141 17.228516 C 28.484884 17.566511 27.265887 17.754623 26 17.833984 L 26 12.423828 z M 29.800781 12.921875 C 31.246591 13.499327 32.56089 14.333302 33.697266 15.361328 C 33.005031 15.781785 32.235522 16.137917 31.464844 16.488281 C 31.243825 15.891012 31.109406 15.183655 30.84375 14.652344 C 30.531418 14.02768 30.180056 13.450034 29.800781 12.921875 z M 12 14 L 19 14 C 19.56503 14 20 14.43497 20 15 L 20 19 C 20 19.56503 19.56503 20 19 20 L 17 20 A 1.0001 1.0001 0 0 0 16.400391 20.199219 L 14 22 L 14 21 A 1.0001 1.0001 0 0 0 13 20 L 12 20 C 11.43497 20 11 19.56503 11 19 L 11 15 C 11 14.43497 11.43497 14 12 14 z M 35.107422 16.861328 C 36.707664 18.848471 37.744279 21.307655 37.949219 24 L 32.964844 24 C 32.882274 22.029528 32.578825 20.198764 32.144531 18.494141 C 33.204107 18.032007 34.207883 17.49712 35.107422 16.861328 z M 30.279297 19.189453 C 30.639019 20.669486 30.891297 22.274248 30.966797 24 L 26 24 L 26 19.917969 C 27.496912 19.838149 28.930946 19.595708 30.279297 19.189453 z M 19.019531 26 L 24 26 L 24 30.082031 C 22.481388 30.163011 21.023479 30.421898 19.654297 30.828125 C 19.310265 29.387294 19.083188 27.767697 19.019531 26 z M 31 28 C 29.35503 28 28 29.35503 28 31 L 28 35 C 28 36.64497 29.35503 38 31 38 L 32.666016 38 L 36.400391 40.800781 A 1.0001 1.0001 0 0 0 38 40 L 38 38 C 39.64497 38 41 36.64497 41 35 L 41 31 C 41 29.35503 39.64497 28 38 28 L 31 28 z M 31 30 L 38 30 C 38.56503 30 39 30.43497 39 31 L 39 35 C 39 35.56503 38.56503 36 38 36 L 37 36 A 1.0001 1.0001 0 0 0 36 37 L 36 38 L 33.599609 36.199219 A 1.0001 1.0001 0 0 0 33 36 L 31 36 C 30.43497 36 30 35.56503 30 35 L 30 31 C 30 30.43497 30.43497 30 31 30 z M 24 32.166016 L 24 37.794922 C 22.570817 37.220604 21.188546 35.446505 20.240234 32.800781 C 21.422509 32.464963 22.686081 32.248387 24 32.166016 z M 18.375 33.466797 C 18.875087 34.858105 19.494087 36.083577 20.210938 37.080078 C 18.750837 36.494661 17.424117 35.647232 16.279297 34.605469 C 16.918408 34.170424 17.623153 33.792047 18.375 33.466797 z"/></svg>