<svg xmlns="http://www.w3.org/2000/svg"  viewBox="0 0 48 48" width="96px" height="96px"><path fill="none" stroke="#000" stroke-linejoin="round" stroke-miterlimit="10" stroke-width="3" d="M31,18.1l-2.5-1.5c-0.3-0.2-0.7-0.2-1,0L25,18.1c-0.7,0.4-1.5-0.1-1.5-0.9V5.5h9v11.7	C32.5,18,31.7,18.5,31,18.1z"/><path fill="none" stroke="#000" stroke-linecap="round" stroke-linejoin="round" stroke-miterlimit="10" stroke-width="3" d="M9.5,12.8V8.5c0-1.7,1.3-3,3-3h25c0.6,0,1,0.4,1,1v23.3"/><path fill="none" stroke="#000" stroke-linecap="round" stroke-linejoin="round" stroke-miterlimit="10" stroke-width="3" d="M38.5,36.5v5c0,0.6-0.4,1-1,1h-25c-1.7,0-3-1.3-3-3V19"/><path fill="none" stroke="#000" stroke-linecap="round" stroke-linejoin="round" stroke-miterlimit="10" stroke-width="3" d="M27.5,42.5h-15c-1.7,0-3-1.3-3-3v0c0-1.7,1.3-3,3-3h26"/></svg>